{"title":"Springfloden S02 E04 - 720p x265 HEVC - SWE (ENG SUBS) [BRSHNKV]","magnet":"magnet:?xt=urn:btih:91963a0148cfa8b5cb1e2daa154dc986d3ff8ad7&dn=Springfloden+S02+E04+-+720p+x265+HEVC+-+SWE+%28ENG+SUBS%29+%5BBRSHNKV%5D&tr=udp%3A%2F%2Ftracker.leechers-paradise.org%3A6969&tr=udp%3A%2F%2Fzer0day.ch%3A1337&tr=udp%3A%2F%2Fopen.demonii.com%3A1337&tr=udp%3A%2F%2Ftracker.coppersurfer.tk%3A6969&tr=udp%3A%2F%2Fexodus.desync.com%3A6969","uploader":"BRSHNKV","categoryP":"video","categoryS":"hd___tv_shows","size":"614278518","seeders":"14","leechers":"3","description":"Video\r\nID                                       : 1\r\nFormat                                   : HEVC\r\nFormat/Info                              : High Efficiency Video Coding\r\nFormat profile                           : Main 10@L3.1@Main\r\nCodec ID                                 : hvc1\r\nCodec ID/Info                            : High Efficiency Video Coding\r\nDuration                                 : 43mn 46s\r\nBit rate                                 : 1 201 Kbps\r\nWidth                                    : 1 280 pixels\r\nHeight                                   : 720 pixels\r\nDisplay aspect ratio                     : 16:9\r\nFrame rate mode                          : Constant\r\nFrame rate                               : 25.000 fps\r\nColor space                              : YUV\r\nChroma subsampling                       : 4:2:0\r\nBit depth                                : 10 bits\r\nBits/(Pixel*Frame)                       : 0.052\r\nStream size                              : 376 MiB (88%)\r\nWriting library                          : x265 2.6:[Mac OS X][clang 9.1.0][64 bit] 10bit\r\nEncoded date                             : UTC 2018-10-09 16:51:55\r\nTagged date                              : UTC 2018-10-09 16:51:55\r\nColor range                              : Limited\r\nColor primaries                          : BT.709\r\nTransfer characteristics                 : BT.709\r\nMatrix coefficients                      : BT.709\r\n\r\nAudio\r\nID                                       : 2\r\nFormat                                   : AAC\r\nFormat/Info                              : Advanced Audio Codec\r\nFormat profile                           : LC\r\nCodec ID                                 : 40\r\nDuration                                 : 43mn 46s\r\nBit rate mode                            : Variable\r\nBit rate                                 : 165 Kbps\r\nChannel(s)                               : 2 channels\r\nChannel positions                        : Front: L R\r\nSampling rate                            : 48.0 KHz\r\nCompression mode                         : Lossy\r\nStream size                              : 51.6 MiB (12%)\r\nTitle                                    : Stereo / Stereo\r\nLanguage                                 : Swedish\r\nEncoded date                             : UTC 2018-10-09 16:51:55\r\nTagged date                              : UTC 2018-10-09 16:51:55","last_updated":"2018-10-11T12:28:52.176Z","parsed":{"xt":"urn:btih:91963a0148cfa8b5cb1e2daa154dc986d3ff8ad7","dn":"Springfloden S02 E04 - 720p x265 HEVC - SWE (ENG SUBS) [BRSHNKV]","tr":["udp://exodus.desync.com:6969","udp://open.demonii.com:1337","udp://tracker.coppersurfer.tk:6969","udp://tracker.leechers-paradise.org:6969","udp://zer0day.ch:1337"],"infoHash":"91963a0148cfa8b5cb1e2daa154dc986d3ff8ad7","infoHashBuffer":{"type":"Buffer","data":[145,150,58,1,72,207,168,181,203,30,45,170,21,77,201,134,211,255,138,215]},"name":"Springfloden S02 E04 - 720p x265 HEVC - SWE (ENG SUBS) [BRSHNKV]","announce":["udp://exodus.desync.com:6969","udp://open.demonii.com:1337","udp://tracker.coppersurfer.tk:6969","udp://tracker.leechers-paradise.org:6969","udp://zer0day.ch:1337"],"urlList":[]}}